<svg width="24" height="24" viewBox="0 0 24 24" fill="none" xmlns="http://www.w3.org/2000/svg">
<path fill-rule="evenodd" clip-rule="evenodd" d="M16.2167 7.00417C15.0709 5.91334 13.6225 5.35417 12 5.35417C9.13087 5.35417 6.7017 7.28834 5.83087 9.90084C5.61087 10.5608 5.4825 11.2667 5.4825 12C5.4825 12.7333 5.60167 13.4392 5.83083 14.0992C6.70167 16.7117 9.13087 18.6459 12 18.6459C13.485 18.6459 14.7408 18.2425 15.7308 17.5826C16.8858 16.8034 17.665 15.6575 17.9308 14.3008H12V10.1667H22.3583C22.4683 10.8358 22.5325 11.5233 22.5325 12.2475C22.5325 15.5933 21.3408 18.4167 19.2692 20.3325C17.4542 22.01 14.97 23 12 23C7.70087 23 3.98837 20.525 2.18254 16.9317C1.43087 15.4467 1 13.7783 1 12C1 10.2217 1.43083 8.55333 2.1825 7.06833C3.98833 3.475 7.70087 1 12 1C14.97 1 17.4542 2.09083 19.3517 3.86917L16.2167 7.00417Z" stroke="#94368D" stroke-width="2"/>
</svg>
