<svg width="27" height="27" viewBox="0 0 27 27" fill="none" xmlns="http://www.w3.org/2000/svg">
<path d="M14 16.6C14 15.1641 15.1641 14 16.6 14H24.4C25.8359 14 27 15.1641 27 16.6V24.4C27 25.8359 25.8359 27 24.4 27H16.6C15.1641 27 14 25.8359 14 24.4V16.6Z" fill="#FF8300"/>
<path d="M14 2.6C14 1.16406 15.1641 0 16.6 0H24.4C25.8359 0 27 1.16406 27 2.6V10.4C27 11.8359 25.8359 13 24.4 13H16.6C15.1641 13 14 11.8359 14 10.4V2.6Z" fill="#FFBE32"/>
<path d="M0 16.6C0 15.1641 1.16406 14 2.6 14H10.4C11.8359 14 13 15.1641 13 16.6V24.4C13 25.8359 11.8359 27 10.4 27H2.6C1.16406 27 0 25.8359 0 24.4V16.6Z" fill="#F5F5F5"/>
<path d="M6.5 13C2.91015 13 -1.27207e-07 10.0899 -2.84124e-07 6.5L-nan -nanL-nan -nanL-2.84124e-07 6.5C-4.41041e-07 2.91015 2.91015 3.44782e-07 6.5 1.81885e-07L-nan -nanL-nan -nanL6.5 1.81885e-07C10.0899 1.89869e-08 13 2.91015 13 6.5L13 12.218C13 12.6499 12.6499 13 12.218 13L6.5 13Z" fill="#CF3642"/>
</svg>
