<svg width="119" height="34" viewBox="0 0 119 34" fill="none" xmlns="http://www.w3.org/2000/svg">
<path d="M50.9715 30.3654C54.6632 30.3654 57.2611 28.4785 57.8627 24.5407H56.6321C55.9758 27.1386 54.1983 27.7675 52.5302 27.7675C49.7956 27.7675 48.0182 25.5525 47.9361 21.7241H57.6986C57.0423 17.7316 54.335 15.8174 50.8348 15.8174C47.1978 15.8174 43.7522 18.6887 43.7522 23.0093C43.7522 27.2753 46.4321 30.3654 50.9715 30.3654ZM50.7254 16.9386C52.0106 16.9386 53.2959 17.7589 53.2412 20.3568H47.9908C48.2369 18.0324 49.2761 16.9386 50.7254 16.9386Z" fill="white"/>
<path d="M73.3178 16.2823H71.2121L67.0556 24.8142L62.8717 16.2823H58.4416L65.1687 30.0099H66.618L73.3178 16.2823Z" fill="white"/>
<path d="M88.2458 16.2823H86.1402L81.9836 24.8142L77.7997 16.2823H73.3697L80.0968 30.0099H81.5461L88.2458 16.2823Z" fill="white"/>
<path d="M103.174 16.2823H101.068L96.9117 24.8142L92.7278 16.2823H88.2977L95.0248 30.0099H96.4742L103.174 16.2823Z" fill="white"/>
<path d="M111.111 30.3654C114.803 30.3654 117.401 28.4785 118.002 24.5407H116.772C116.115 27.1386 114.338 27.7675 112.67 27.7675C109.935 27.7675 108.158 25.5525 108.076 21.7241H117.838C117.182 17.7316 114.475 15.8174 110.974 15.8174C107.337 15.8174 103.892 18.6887 103.892 23.0093C103.892 27.2753 106.572 30.3654 111.111 30.3654ZM110.865 16.9386C112.15 16.9386 113.435 17.7589 113.381 20.3568H108.13C108.376 18.0324 109.416 16.9386 110.865 16.9386Z" fill="white"/>
<path d="M30.7378 0C31.8038 1.15309e-07 32.7513 0.507562 33.3513 1.29406C33.7722 1.84583 34.0222 2.53488 34.0222 3.28227C34.0222 3.87345 33.8658 4.42813 33.5921 4.90723C33.0266 5.89722 31.9602 6.56455 30.7378 6.56455H27.4534V3.28227C27.4534 2.25493 27.9257 1.33783 28.6651 0.735977C29.2304 0.275861 29.9519 -1.15309e-07 30.7378 0Z" fill="white"/>
<path d="M2.19895 21.1922L2.19894 21.1922C-0.73298 18.2622 -0.73298 13.5117 2.19894 10.5817L2.19895 10.5817C5.13087 7.65172 9.88445 7.65172 12.8164 10.5817L18.1251 15.887L12.8164 21.1922C9.88445 24.1222 5.13087 24.1222 2.19895 21.1922Z" fill="#FFC27A"/>
<path d="M28.7422 26.4975L18.1248 15.887L23.4335 10.5818C26.3654 7.65178 31.119 7.65178 34.0509 10.5818L34.0509 10.5818C36.9828 13.5118 36.9828 18.2622 34.0509 21.1922L28.7422 26.4975Z" fill="#FFB71B"/>
<path d="M18.1249 15.8867L12.8162 21.1919L23.4336 31.8024L28.7423 26.4971L18.1249 15.8867Z" fill="#FF8300"/>
<path d="M12.8163 21.1919L12.8163 21.1919C9.88436 24.1219 9.88436 28.8724 12.8163 31.8024L12.8163 31.8024C15.7482 34.7324 20.5018 34.7324 23.4337 31.8024L23.4337 31.8024L12.8163 21.1919Z" fill="#FF5100"/>
<path d="M29.5114 18.817C31.5556 18.817 33.2127 17.161 33.2127 15.1182C33.2127 13.0754 31.5556 11.4194 29.5114 11.4194C27.4673 11.4194 25.8102 13.0754 25.8102 15.1182C25.8102 17.161 27.4673 18.817 29.5114 18.817Z" fill="#522A44"/>
<path d="M31.0282 16.3776C31.7248 16.3776 32.2895 15.8135 32.2895 15.1175C32.2895 14.4216 31.7248 13.8574 31.0282 13.8574C30.3317 13.8574 29.767 14.4216 29.767 15.1175C29.767 15.8135 30.3317 16.3776 31.0282 16.3776Z" fill="white"/>
</svg>
